<?xml version="1.0" encoding="iso-8859-1"?>
<!-- Generator: Adobe Illustrator 19.0.0, SVG Export Plug-In . SVG Version: 6.00 Build 0)  -->
<svg version="1.1" id="Layer_1" xmlns="http://www.w3.org/2000/svg" xmlns:xlink="http://www.w3.org/1999/xlink" x="0px" y="0px"
	 viewBox="0 0 512 512" style="enable-background:new 0 0 512 512;" xml:space="preserve">
<path style="fill:#8DC3E9;" d="M494.14,315.771H17.86c-9.864,0-17.86-7.997-17.86-17.86V55.353
	c0-22.979,18.695-41.674,41.674-41.674h428.651c22.979,0,41.674,18.695,41.674,41.674V297.91
	C512,307.774,504.003,315.771,494.14,315.771z"/>
<path style="fill:#48AEE2;" d="M470.326,13.679H256v302.092h238.14c9.864,0,17.86-7.997,17.86-17.86V55.353
	C512,32.374,493.305,13.679,470.326,13.679z"/>
<path style="fill:#3797D3;" d="M327.49,498.321H184.511c-11.587,0-20.076-10.866-17.357-22.07l26.967-111.203
	c1.942-8.011,9.114-13.651,17.357-13.651h89.044c8.243,0,15.415,5.64,17.357,13.651l26.967,111.203
	C347.568,487.467,339.064,498.321,327.49,498.321z"/>
<path style="fill:#4B77BB;" d="M344.846,476.252l-26.967-111.203c-1.942-8.01-9.114-13.651-17.357-13.651H256v146.924h71.49
	C339.065,498.321,347.568,487.467,344.846,476.252z"/>
<g>
	<path style="fill:#48AEE2;" d="M364.151,498.321H147.849c-9.864,0-17.86-7.997-17.86-17.86s7.997-17.86,17.86-17.86h216.302
		c9.864,0,17.86,7.997,17.86,17.86S374.015,498.321,364.151,498.321z"/>
	<path style="fill:#48AEE2;" d="M470.326,387.117H41.674C18.658,387.117,0,368.459,0,345.443v-53.486h512v53.486
		C512,368.459,493.342,387.117,470.326,387.117z"/>
</g>
<g>
	<path style="fill:#3797D3;" d="M364.151,462.6H256v35.721h108.151c9.864,0,17.86-7.997,17.86-17.86
		C382.012,470.597,374.015,462.6,364.151,462.6z"/>
	<path style="fill:#3797D3;" d="M256,291.957v95.161h214.326c23.016,0,41.674-18.658,41.674-41.674v-53.486L256,291.957L256,291.957
		z"/>
</g>
<path style="fill:#FFE49C;" d="M343.204,245.63H168.796c-9.864,0-17.86-7.997-17.86-17.86v-93.276c0-9.864,7.997-17.86,17.86-17.86
	h174.41c9.864,0,17.86,7.997,17.86,17.86v93.276C361.065,237.633,353.068,245.63,343.204,245.63z"/>
<g>
	<path style="fill:#FFD155;" d="M343.204,116.634H256V245.63h87.204c9.864,0,17.86-7.997,17.86-17.86v-93.276
		C361.065,124.629,353.068,116.634,343.204,116.634z"/>
	<path style="fill:#FFD155;" d="M274.346,136.985v-22.913c0-10.116-8.23-18.346-18.346-18.346c-10.116,0-18.346,8.23-18.346,18.346
		v22.914c0,23.601-35.721,23.626-35.721,0v-22.914c0-29.813,24.255-54.067,54.067-54.067s54.067,24.255,54.067,54.067v22.914
		C310.067,160.586,274.346,160.611,274.346,136.985z"/>
</g>
<path style="fill:#FFBE00;" d="M256,60.005v35.721c10.116,0,18.346,8.23,18.346,18.346v22.914c0,23.625,35.721,23.601,35.721,0
	v-22.914C310.067,84.26,285.813,60.005,256,60.005z"/>
<g>
</g>
<g>
</g>
<g>
</g>
<g>
</g>
<g>
</g>
<g>
</g>
<g>
</g>
<g>
</g>
<g>
</g>
<g>
</g>
<g>
</g>
<g>
</g>
<g>
</g>
<g>
</g>
<g>
</g>
</svg>
